<svg width="741" height="228" viewBox="0 0 741 228" fill="none" xmlns="http://www.w3.org/2000/svg">
<path d="M196.056 36.104C204.888 37.256 212.856 39.464 219.96 42.728C227.064 45.992 233.016 50.12 237.816 55.112C242.808 59.912 246.648 65.48 249.336 71.816C252.024 77.96 253.368 84.488 253.368 91.4C253.368 100.424 251.544 108.872 247.896 116.744C244.44 124.616 239.448 131.432 232.92 137.192C226.584 142.952 218.808 147.56 209.592 151.016C200.376 154.28 190.008 155.912 178.488 155.912C166.008 155.912 155.64 152.84 147.384 146.696C135.288 172.616 121.08 191.528 104.76 203.432C88.44 215.144 70.872 221 52.056 221C36.12 221 24.312 217.064 16.632 209.192C9.144 201.128 5.4 191.048 5.4 178.952C5.4 175.304 5.976 171.656 7.128 168.008C8.472 164.168 10.296 160.616 12.6 157.352C14.904 153.896 17.688 150.824 20.952 148.136C24.408 145.448 28.248 143.24 32.472 141.512C33.048 141.128 33.528 141.128 33.912 141.512C34.488 141.896 34.584 142.568 34.2 143.528C28.44 146.6 24.216 150.728 21.528 155.912C18.84 161.096 17.496 166.664 17.496 172.616C17.496 177.8 18.36 182.792 20.088 187.592C21.816 192.2 24.504 196.232 28.152 199.688C31.992 203.144 36.792 205.928 42.552 208.04C48.312 209.96 55.224 210.92 63.288 210.92C72.504 210.92 80.568 209.768 87.48 207.464C94.392 205.16 100.632 201.128 106.2 195.368C111.96 189.608 117.144 181.832 121.752 172.04C126.552 162.056 131.352 149.48 136.152 134.312C132.696 128.744 130.296 122.696 128.952 116.168C129.144 115.4 129.528 114.824 130.104 114.44C130.68 114.056 131.16 114.152 131.544 114.728C132.888 120.296 134.904 125.288 137.592 129.704C138.36 127.208 139.032 124.616 139.608 121.928C140.376 119.24 141.144 116.552 141.912 113.864C146.712 96.776 151.992 82.568 157.752 71.24C163.512 59.912 170.04 50.792 177.336 43.88C176.376 43.688 174.936 43.592 173.016 43.592C152.664 43.592 135.576 48.296 121.752 57.704C107.928 66.92 98.232 81.128 92.664 100.328C92.088 100.904 91.416 101 90.648 100.616C90.072 100.04 89.784 99.08 89.784 97.736C96.312 78.536 107.16 63.368 122.328 52.232C137.688 41.096 157.848 35.528 182.808 35.528H187.416C194.712 30.728 202.872 27.176 211.896 24.872C212.856 24.872 213.336 25.352 213.336 26.312C213.336 27.08 212.856 27.656 211.896 28.04C206.136 29.768 200.856 32.456 196.056 36.104ZM181.656 150.152C189.72 150.152 197.016 148.808 203.544 146.12C210.072 143.432 215.64 139.688 220.248 134.888C225.048 130.088 228.696 124.52 231.192 118.184C233.688 111.848 234.936 105.032 234.936 97.736C234.936 84.104 230.808 72.584 222.552 63.176C214.488 53.576 202.872 47.432 187.704 44.744C178.104 56.84 170.136 75.272 163.8 100.04C161.688 107.912 159.384 115.4 156.888 122.504C154.584 129.416 152.088 135.944 149.4 142.088C157.272 147.464 168.024 150.152 181.656 150.152ZM315.083 202.856C315.467 202.472 315.947 202.472 316.523 202.856C317.099 203.24 317.291 203.816 317.099 204.584C313.643 209.576 309.803 213.608 305.579 216.68C301.355 219.56 297.323 221 293.483 221C289.067 221 286.187 217.928 284.843 211.784C283.691 205.448 284.363 197.96 286.859 189.32C281.675 197.576 276.011 204.68 269.867 210.632C263.915 216.392 257.579 219.848 250.859 221C246.251 221 242.699 218.888 240.203 214.664C237.707 210.44 236.459 205.544 236.459 199.976C236.459 193.64 237.995 187.4 241.067 181.256C244.139 174.92 248.171 169.256 253.163 164.264C258.347 159.272 264.011 155.24 270.155 152.168C276.491 148.904 282.827 147.272 289.163 147.272C295.883 147.272 301.163 148.904 305.003 152.168C306.923 150.824 309.323 149.672 312.203 148.712C315.275 147.752 317.963 147.272 320.267 147.272C321.035 147.272 321.419 147.752 321.419 148.712C317.003 154.088 313.163 160.04 309.899 166.568C306.827 172.904 304.427 179.048 302.699 185C300.971 190.76 299.915 195.944 299.531 200.552C299.147 205.16 299.531 208.328 300.683 210.056C301.643 211.208 303.275 211.592 305.579 211.208C307.883 210.632 311.051 207.848 315.083 202.856ZM259.787 210.344C262.091 210.344 264.875 208.904 268.139 206.024C271.595 203.144 275.147 199.304 278.795 194.504C282.443 189.704 285.995 184.328 289.451 178.376C293.099 172.424 296.267 166.376 298.955 160.232C298.187 157.736 296.363 155.72 293.483 154.184C290.795 152.648 287.627 151.88 283.979 151.88C279.563 151.88 275.435 153.032 271.595 155.336C267.755 157.448 264.395 160.52 261.515 164.552C258.827 168.392 256.619 173.096 254.891 178.664C253.355 184.04 252.587 189.992 252.587 196.52C252.587 200.744 253.259 204.104 254.603 206.6C256.139 209.096 257.867 210.344 259.787 210.344ZM412.182 200.84C412.566 200.456 413.046 200.552 413.622 201.128C414.198 201.512 414.39 202.088 414.198 202.856C410.742 207.656 406.71 211.88 402.102 215.528C397.686 219.176 393.27 221 388.854 221C385.59 221 382.998 219.944 381.078 217.832C379.35 215.72 378.486 212.936 378.486 209.48C378.486 202.76 379.638 195.464 381.942 187.592C384.438 179.72 387.702 171.752 391.734 163.688C392.31 162.344 392.598 160.904 392.598 159.368C392.598 157.448 391.734 156.488 390.006 156.488C382.902 156.488 375.03 161.384 366.39 171.176C357.75 180.776 349.782 196.136 342.486 217.256C342.294 217.832 341.622 218.408 340.47 218.984C339.51 219.368 338.358 219.752 337.014 220.136C335.67 220.328 334.326 220.52 332.982 220.712C331.638 220.904 330.582 221 329.814 221C328.854 221 328.086 220.808 327.51 220.424C327.126 220.04 327.126 219.368 327.51 218.408C330.774 210.152 334.038 201.128 337.302 191.336C340.758 181.352 343.734 171.368 346.23 161.384C346.806 159.464 346.902 158.12 346.518 157.352C346.134 156.392 345.462 155.912 344.502 155.912C342.39 155.912 340.374 156.872 338.454 158.792C336.534 160.52 334.806 162.44 333.27 164.552C332.694 164.936 332.118 164.84 331.542 164.264C331.158 163.688 331.062 163.112 331.254 162.536C332.214 161.192 333.462 159.656 334.998 157.928C336.726 156.2 338.646 154.568 340.758 153.032C342.87 151.304 345.078 149.96 347.382 149C349.686 147.848 351.99 147.272 354.294 147.272C357.558 147.272 359.67 148.328 360.63 150.44C361.782 152.36 362.07 154.76 361.494 157.64C360.534 161.864 359.478 165.896 358.326 169.736C357.366 173.384 356.118 177.512 354.582 182.12C356.886 177.896 359.67 173.768 362.934 169.736C366.39 165.512 370.134 161.768 374.166 158.504C378.39 155.048 382.902 152.36 387.702 150.44C392.502 148.328 397.59 147.272 402.966 147.272C405.27 147.272 406.998 147.848 408.15 149C409.494 150.152 410.166 151.496 410.166 153.032C410.166 155.72 409.494 158.12 408.15 160.232C404.118 167.528 400.662 175.112 397.782 182.984C395.094 190.664 393.75 197.576 393.75 203.72C393.75 208.712 395.382 211.208 398.646 211.208C400.758 211.208 402.87 210.344 404.982 208.616C407.094 206.888 409.494 204.296 412.182 200.84ZM502.115 202.856C502.499 202.472 502.979 202.472 503.555 202.856C504.131 203.24 504.323 203.816 504.131 204.584C500.675 209.576 496.835 213.608 492.611 216.68C488.387 219.56 484.355 221 480.515 221C476.099 221 473.219 217.928 471.875 211.784C470.723 205.448 471.395 197.96 473.891 189.32C468.707 197.576 463.043 204.68 456.898 210.632C450.947 216.392 444.611 219.848 437.891 221C433.283 221 429.731 218.888 427.235 214.664C424.739 210.44 423.491 205.544 423.491 199.976C423.491 193.64 425.027 187.4 428.099 181.256C431.171 174.92 435.203 169.256 440.195 164.264C445.379 159.272 451.043 155.24 457.187 152.168C463.523 148.904 469.859 147.272 476.195 147.272C482.915 147.272 488.195 148.904 492.035 152.168C493.955 150.824 496.355 149.672 499.234 148.712C502.307 147.752 504.995 147.272 507.299 147.272C508.067 147.272 508.451 147.752 508.451 148.712C504.035 154.088 500.195 160.04 496.931 166.568C493.859 172.904 491.459 179.048 489.731 185C488.003 190.76 486.947 195.944 486.562 200.552C486.179 205.16 486.563 208.328 487.715 210.056C488.675 211.208 490.307 211.592 492.611 211.208C494.915 210.632 498.083 207.848 502.115 202.856ZM446.819 210.344C449.123 210.344 451.907 208.904 455.171 206.024C458.627 203.144 462.179 199.304 465.827 194.504C469.475 189.704 473.027 184.328 476.483 178.376C480.131 172.424 483.299 166.376 485.987 160.232C485.219 157.736 483.395 155.72 480.515 154.184C477.827 152.648 474.659 151.88 471.011 151.88C466.595 151.88 462.467 153.032 458.627 155.336C454.787 157.448 451.427 160.52 448.547 164.552C445.859 168.392 443.651 173.096 441.923 178.664C440.387 184.04 439.619 189.992 439.619 196.52C439.619 200.744 440.291 204.104 441.635 206.6C443.171 209.096 444.899 210.344 446.819 210.344ZM565.805 173.192C564.653 173.576 564.077 173.096 564.077 171.752C565.421 167.72 565.133 164.168 563.213 161.096C561.485 158.024 558.221 156.488 553.421 156.488C547.277 156.488 542.285 160.328 538.445 168.008C534.797 175.688 532.973 185.672 532.973 197.96C532.973 206.984 536.525 211.496 543.629 211.496C546.893 211.496 550.445 210.344 554.285 208.04C558.317 205.544 561.965 202.376 565.229 198.536C565.997 198.152 566.669 198.248 567.245 198.824C567.821 199.4 567.917 200.072 567.533 200.84C562.733 206.984 557.357 211.88 551.405 215.528C545.453 219.176 539.117 221 532.397 221C528.173 221 524.621 219.56 521.741 216.68C518.861 213.608 517.421 209.384 517.421 204.008C517.421 197.288 518.765 190.568 521.453 183.848C524.333 176.936 527.981 170.792 532.397 165.416C536.813 160.04 541.613 155.72 546.797 152.456C551.981 149 557.069 147.272 562.061 147.272C566.477 147.272 569.933 148.52 572.429 151.016C574.925 153.512 576.173 156.296 576.173 159.368C576.173 160.52 575.789 161.768 575.021 163.112C574.445 164.456 573.581 165.8 572.429 167.144C571.469 168.488 570.317 169.736 568.973 170.888C567.821 172.04 566.765 172.808 565.805 173.192ZM736.225 161.672C736.225 172.616 721.729 180.104 692.737 184.136C692.545 186.056 692.353 187.976 692.161 189.896C692.161 191.816 692.161 193.832 692.161 195.944C692.161 200.936 693.313 204.776 695.617 207.464C697.921 210.152 701.569 211.496 706.561 211.496C710.209 211.496 713.953 210.44 717.793 208.328C721.633 206.216 724.705 203.528 727.009 200.264C727.777 199.88 728.353 200.072 728.737 200.84C729.121 201.416 729.217 202.088 729.025 202.856C725.185 207.848 720.289 212.168 714.337 215.816C708.577 219.272 702.337 221 695.617 221C688.897 221 684.001 219.368 680.929 216.104C678.049 212.648 676.609 207.848 676.609 201.704C676.609 195.752 677.857 189.608 680.353 183.272C682.849 176.744 686.017 170.792 689.857 165.416C693.889 160.04 698.401 155.72 703.393 152.456C708.577 149 713.761 147.272 718.945 147.272C724.129 147.272 728.257 148.808 731.329 151.88C734.593 154.76 736.225 158.024 736.225 161.672ZM711.169 154.76C706.753 154.76 702.913 156.872 699.649 161.096C696.577 165.128 694.465 171.464 693.313 180.104C702.529 179.144 709.345 177.416 713.761 174.92C718.177 172.232 720.385 168.968 720.385 165.128C720.385 162.248 719.521 159.848 717.793 157.928C716.065 155.816 713.857 154.76 711.169 154.76Z" fill="#1E1E1E"/>
<path d="M581.506 218.408C590.146 185.384 600.034 155.624 611.17 129.128C622.498 102.632 634.402 80.072 646.882 61.448C659.362 42.824 671.938 28.52 684.61 18.536C697.474 8.35999 709.666 3.27199 721.186 3.27199C725.986 3.27199 729.73 4.42399 732.418 6.72799C735.298 8.83999 737.218 11.528 738.178 14.792C739.33 17.864 739.522 21.224 738.754 24.872C737.986 28.52 736.546 31.784 734.434 34.664C733.858 35.24 733.282 35.432 732.706 35.24C732.13 35.048 731.842 34.568 731.842 33.8C732.802 29.96 731.746 26.312 728.674 22.856C725.602 19.4 720.706 17.672 713.986 17.672C703.618 17.672 693.73 20.456 684.322 26.024C675.106 31.592 666.082 40.904 657.25 53.96C648.418 66.824 639.778 84.008 631.33 105.512C622.882 126.824 614.242 153.416 605.41 185.288C608.29 180.104 611.554 175.208 615.202 170.6C619.042 165.992 623.17 161.96 627.586 158.504C632.002 155.048 636.706 152.36 641.698 150.44C646.69 148.328 651.874 147.272 657.25 147.272C659.554 147.272 661.186 147.848 662.146 149C663.298 150.152 663.874 151.496 663.874 153.032C663.874 155.528 663.01 158.312 661.282 161.384C657.25 168.488 653.986 175.784 651.49 183.272C648.994 190.76 647.746 197.576 647.746 203.72C647.746 206.408 648.034 208.616 648.61 210.344C649.186 212.072 650.242 212.936 651.778 212.936C653.698 212.936 655.81 211.976 658.114 210.056C660.418 207.944 662.338 205.64 663.874 203.144C664.45 202.76 665.026 202.856 665.602 203.432C666.178 203.816 666.37 204.296 666.178 204.872C663.682 209.096 660.13 212.84 655.522 216.104C651.106 219.368 647.074 221 643.426 221C640.162 221 637.474 220.136 635.362 218.408C633.25 216.488 632.194 213.32 632.194 208.904C632.194 205.448 632.482 201.8 633.058 197.96C633.826 193.928 634.69 189.992 635.65 186.152C636.802 182.312 638.05 178.568 639.394 174.92C640.93 171.08 642.562 167.624 644.29 164.552C645.25 162.248 645.73 160.616 645.73 159.656C645.73 157.928 644.77 157.064 642.85 157.064C639.202 157.064 635.266 158.504 631.042 161.384C626.818 164.072 622.69 168.008 618.658 173.192C614.626 178.184 610.69 184.232 606.85 191.336C603.202 198.44 600.034 206.312 597.346 214.952C596.962 216.296 595.426 217.64 592.738 218.984C590.05 220.328 587.074 221 583.81 221C581.89 221 581.122 220.136 581.506 218.408Z" fill="#FF214F"/>
</svg>
